<svg width="623" height="145" viewBox="0 0 623 145" fill="none" xmlns="http://www.w3.org/2000/svg">
<path d="M59.2128 71.6364C59.8852 69.0523 60.6055 66.5161 61.3739 64.0277C62.1903 61.4915 63.1748 58.6682 64.3273 55.5577C65.3358 52.7822 66.5604 49.6 68.0011 46.011C69.4418 42.3741 70.9546 38.6894 72.5393 34.9568C74.1721 31.2243 75.7569 27.7549 77.2936 24.5487C78.8304 21.3426 80.2231 18.7824 81.4717 16.8683C83.0084 14.5235 84.6652 12.7768 86.4421 11.6284C88.267 10.4799 90.9323 9.90563 94.438 9.90563H103.875C106.372 9.90563 108.461 10.2885 110.142 11.0541C111.87 11.7719 113.095 13.5186 113.815 16.2941C114.344 18.3517 114.848 21.3665 115.328 25.3383C115.808 29.3102 116.217 34.8133 116.553 41.8477C116.889 48.8822 117.153 57.9264 117.345 68.9805C117.537 79.9868 117.633 93.6011 117.633 109.823C117.633 110.685 117.345 111.402 116.769 111.977C116.193 112.551 115.496 112.838 114.68 112.838H98.2559C97.4395 112.838 96.7431 112.551 96.1668 111.977C95.5906 111.402 95.3024 110.661 95.3024 109.752C95.3024 97.1183 95.3024 86.3991 95.3024 77.5941C95.3024 68.7891 95.2784 61.4915 95.2304 55.7012C95.1824 49.911 95.1103 45.3171 95.0143 41.9195C94.9663 38.4741 94.8702 35.8182 94.7261 33.9519H94.2939C91.7487 39.79 89.0354 46.2981 86.154 53.4761C83.2726 60.6062 80.4632 67.9756 77.7259 75.5843C74.9885 83.1451 72.5393 90.5385 70.3783 97.7643C69.754 99.9177 68.9616 101.425 68.0011 102.286C67.0887 103.1 64.9756 103.507 61.662 103.507H53.378C50.5446 103.507 48.6477 103.148 47.6872 102.43C46.7748 101.712 45.9824 100.157 45.3101 97.7643C43.7253 92.309 41.9724 86.5427 40.0515 80.4653C38.1306 74.388 36.1376 68.4302 34.0726 62.5921C32.0556 56.7062 30.0867 51.2987 28.1657 46.3699C26.2928 41.3931 24.612 37.2538 23.1233 33.9519H22.6911C22.3069 39.5986 21.9707 46.4656 21.6826 54.5528C21.3944 62.64 21.1543 71.4211 20.9622 80.896C20.8181 90.371 20.7221 100.037 20.6741 109.895C20.6741 110.756 20.3859 111.474 19.8097 112.049C19.2334 112.575 18.537 112.838 17.7206 112.838H2.95344C2.13704 112.838 1.4407 112.551 0.864421 111.977C0.28814 111.402 0 110.661 0 109.752C0.0480234 84.2457 0.552269 63.8842 1.51274 48.6668C2.52123 33.4495 3.60175 23.2567 4.75432 18.0886C5.52269 14.691 6.86735 12.4897 8.78828 11.4848C10.7572 10.432 12.9903 9.90563 15.4875 9.90563H27.1572C29.7985 9.90563 31.7195 10.3842 32.92 11.3412C34.1686 12.2504 35.6814 14.0449 37.4582 16.7247C38.5148 18.3039 39.7634 20.6726 41.2041 23.8309C42.6928 26.9893 44.2295 30.5065 45.8143 34.3826C47.3991 38.2109 48.8878 42.0152 50.2805 45.7956C51.7212 49.5282 52.8978 52.7822 53.8102 55.5577C54.7707 58.381 55.6591 61.1326 56.4755 63.8124C57.2919 66.4443 58.0123 69.0523 58.6366 71.6364H59.2128Z" fill="white"/>
<path d="M172.236 114.633C164.12 114.633 157.061 113.341 151.058 110.756C145.055 108.125 140.396 104.057 137.083 98.5539C133.769 93.0508 132.112 85.9445 132.112 77.2352C132.112 64.1713 135.474 54.2896 142.197 47.5901C148.921 40.8906 157.853 37.5409 168.994 37.5409C176.246 37.5409 182.369 38.833 187.363 41.417C192.406 44.0011 196.224 47.5662 198.817 52.1123C201.458 56.6583 202.779 61.8504 202.779 67.6885C202.779 73.383 201.314 77.3549 198.385 79.604C195.455 81.8531 191.181 82.9776 185.562 82.9776H154.659C155.044 87.9065 156.844 91.663 160.062 94.2471C163.328 96.8312 167.746 98.1232 173.316 98.1232C177.735 98.1232 181.264 97.4772 183.906 96.1851C186.595 94.8453 188.468 93.7925 189.524 93.0268C190.437 92.3569 191.469 92.0458 192.622 92.0937C193.534 92.0937 194.831 92.2851 196.512 92.6679C198.241 93.0029 199.945 93.6489 201.626 94.606C202.827 95.2281 203.427 96.0894 203.427 97.1901C203.427 97.8122 203.307 98.6974 203.067 99.8459C202.923 100.516 202.683 101.497 202.347 102.789C202.01 104.033 201.578 105.205 201.05 106.306C200.762 106.833 200.306 107.335 199.681 107.813C198.721 108.483 197.16 109.369 194.999 110.469C192.886 111.57 189.981 112.527 186.283 113.341C182.585 114.202 177.903 114.633 172.236 114.633ZM154.515 68.2627H177.999C180.448 68.2627 181.673 67.1382 181.673 64.8891C181.673 61.4915 180.592 58.6442 178.431 56.3473C176.318 54.0025 173.124 52.8301 168.85 52.8301C164.192 52.8301 160.758 54.3135 158.549 57.2804C156.388 60.2473 155.044 63.9081 154.515 68.2627Z" fill="white"/>
<path d="M244.703 114.633C238.316 114.633 232.865 113.077 228.351 109.967C223.885 106.809 220.475 102.478 218.122 96.9747C215.817 91.4237 214.665 85.0353 214.665 77.8095C214.665 68.2867 216.345 60.5823 219.707 54.6963C223.117 48.7625 227.895 44.4079 234.042 41.6324C240.237 38.8569 247.537 37.4691 255.941 37.4691C258.822 37.4691 261.199 37.6127 263.072 37.8998C264.993 38.1869 266.362 38.4501 267.178 38.6894V11.9155C267.178 10.767 267.418 9.88171 267.898 9.25961C269.915 6.62768 272.869 3.78041 276.759 0.7178C277.431 0.239267 278.031 0 278.56 0C279.184 0 279.784 0.239267 280.361 0.7178C282.426 2.29696 284.154 3.78041 285.547 5.16816C286.988 6.5559 288.212 7.91972 289.221 9.25961C289.701 9.88171 289.941 10.767 289.941 11.9155V109.536C289.941 110.445 289.629 111.235 289.005 111.905C288.38 112.527 287.588 112.838 286.628 112.838H275.894C275.126 112.838 274.43 112.742 273.805 112.551C273.229 112.312 272.677 111.881 272.149 111.259L267.682 105.517H267.178C266.554 106.474 265.425 107.694 263.793 109.177C262.208 110.613 259.879 111.881 256.805 112.982C253.78 114.082 249.746 114.633 244.703 114.633ZM251.691 96.2569C256.013 96.2569 259.398 95.4434 261.848 93.8164C264.345 92.1894 266.122 90.1317 267.178 87.6433V57.5675C266.41 57.089 265.137 56.5148 263.36 55.8448C261.583 55.1749 259.086 54.8399 255.869 54.8399C249.914 54.8399 245.448 56.7779 242.47 60.6541C239.493 64.5302 238.004 69.7462 238.004 76.3021C238.004 83.0973 239.253 88.1219 241.75 91.3759C244.247 94.6299 247.561 96.2569 251.691 96.2569Z" fill="white"/>
<path d="M322.492 109.294C320.091 105.526 317.735 101.308 315.424 96.6427C313.143 91.9471 311.072 87.1319 309.211 82.197C307.35 77.2322 305.864 72.4619 304.753 67.8859C303.643 63.28 303.088 59.1676 303.088 55.5487C303.088 54.7711 303.253 54.158 303.583 53.7094C304.273 52.7523 305.114 51.7653 306.104 50.7484C307.125 49.7016 308.325 48.61 309.706 47.4735C310.156 47.1146 310.576 46.9351 310.966 46.9351C311.357 46.9351 311.747 47.1146 312.137 47.4735C313.548 48.61 314.748 49.7016 315.739 50.7484C316.729 51.7653 317.57 52.7523 318.26 53.7094C318.59 54.158 318.755 54.816 318.755 55.6833V55.5039C318.755 58.0461 319.1 61.1117 319.791 64.7007C320.511 68.2598 321.487 72.0132 322.717 75.9611C323.978 79.8791 325.404 83.6924 326.994 87.4011C328.615 91.0798 330.341 94.2949 332.172 97.0465H332.442C334.453 94.2949 336.269 91.0947 337.89 87.4459C339.54 83.7672 340.951 79.9689 342.122 76.0509C343.322 72.1329 344.238 68.3943 344.868 64.8353C345.528 61.2463 345.858 58.1507 345.858 55.5487V55.6833C345.858 54.816 346.009 54.158 346.309 53.7094C347.749 51.7354 349.73 49.6568 352.252 47.4735C352.732 47.1146 353.152 46.9351 353.512 46.9351C353.842 46.9351 354.233 47.1146 354.683 47.4735C356.033 48.61 357.189 49.7016 358.149 50.7484C359.11 51.7653 359.935 52.7523 360.626 53.7094C360.926 54.1879 361.076 54.8309 361.076 55.6384C361.076 58.3601 360.686 61.5154 359.905 65.1044C359.155 68.6635 358.119 72.432 356.799 76.4098C355.478 80.3876 353.977 84.3654 352.297 88.3432C350.616 92.321 348.845 96.1193 346.984 99.7383C345.123 103.327 343.262 106.512 341.401 109.294C339.841 111.657 337.71 112.838 335.008 112.838H328.795C326.094 112.838 323.993 111.657 322.492 109.294ZM303.088 55.5039V55.5487V55.6833V55.5039ZM361.076 55.5487V55.6833V55.6384V55.5487Z" fill="#FF5D5D"/>
<path d="M367.784 51.8251C367.784 51.4363 367.904 51.0924 368.144 50.7933C368.384 50.4942 368.7 50.1054 369.09 49.6269C369.93 48.6698 370.906 47.6679 372.016 46.6211C373.127 45.5444 374.252 44.5125 375.393 43.5256C376.113 42.9573 376.653 42.6732 377.014 42.6732C377.374 42.6732 377.929 42.9573 378.679 43.5256C381.111 45.6192 383.182 47.6529 384.892 49.6269C385.283 50.0755 385.598 50.4643 385.838 50.7933C386.108 51.0924 386.243 51.4363 386.243 51.8251C386.243 52.2139 386.108 52.5579 385.838 52.857C385.598 53.1561 385.268 53.5598 384.847 54.0683C384.037 54.9954 383.092 55.9973 382.011 57.074C380.931 58.1208 379.82 59.1228 378.679 60.0798C378.259 60.4387 377.929 60.678 377.689 60.7976C377.449 60.8874 377.224 60.9322 377.014 60.9322C376.804 60.9322 376.578 60.8874 376.338 60.7976C376.128 60.678 375.783 60.4387 375.303 60.0798C374.102 59.1228 372.977 58.1208 371.926 57.074C370.876 55.9973 369.93 54.9655 369.09 53.9785C368.7 53.5 368.384 53.1261 368.144 52.857C367.904 52.5579 367.784 52.2139 367.784 51.8251ZM384.082 110.46C384.082 111.358 383.887 111.986 383.497 112.345C383.137 112.674 382.506 112.838 381.606 112.838H372.331C371.431 112.838 370.786 112.674 370.395 112.345C370.035 111.986 369.855 111.358 369.855 110.46V69.2766C369.855 68.3794 370.035 67.7663 370.395 67.4373C370.786 67.0784 371.431 66.8989 372.331 66.8989H381.606C382.506 66.8989 383.137 67.0784 383.497 67.4373C383.887 67.7663 384.082 68.3794 384.082 69.2766V110.46Z" fill="#FF5D5D"/>
<path d="M418.929 113.96C413.857 113.96 409.444 113.152 405.693 111.537C401.941 109.892 399.029 107.35 396.958 103.91C394.887 100.471 393.852 96.0296 393.852 90.5863C393.852 82.4213 395.953 76.2453 400.155 72.0581C404.357 67.8709 409.94 65.7774 416.903 65.7774C421.435 65.7774 425.262 66.5849 428.384 68.1999C431.535 69.815 433.921 72.0432 435.542 74.8844C437.193 77.7257 438.018 80.9708 438.018 84.6196C438.018 88.1787 437.103 90.6611 435.272 92.0668C433.441 93.4725 430.77 94.1753 427.258 94.1753H407.944C408.184 97.2559 409.309 99.6037 411.32 101.219C413.361 102.834 416.123 103.641 419.604 103.641C422.366 103.641 424.572 103.238 426.223 102.43C427.903 101.593 429.074 100.935 429.734 100.456C430.305 100.037 430.95 99.8429 431.67 99.8728C432.241 99.8728 433.051 99.9925 434.101 100.232C435.182 100.441 436.247 100.845 437.298 101.443C438.048 101.832 438.424 102.37 438.424 103.058C438.424 103.447 438.349 104 438.198 104.718C438.108 105.137 437.958 105.75 437.748 106.557C437.538 107.335 437.268 108.068 436.938 108.756C436.758 109.085 436.473 109.399 436.082 109.698C435.482 110.116 434.507 110.67 433.156 111.358C431.835 112.046 430.019 112.644 427.708 113.152C425.397 113.69 422.471 113.96 418.929 113.96ZM407.854 84.9785H422.531C424.062 84.9785 424.827 84.2757 424.827 82.87C424.827 80.7465 424.152 78.9669 422.801 77.5313C421.48 76.0658 419.484 75.3331 416.813 75.3331C413.902 75.3331 411.756 76.2602 410.375 78.1145C409.024 79.9689 408.184 82.2568 407.854 84.9785Z" fill="#FF5D5D"/>
<path d="M455.982 109.563C455.112 108.217 454.181 106.348 453.191 103.955C452.2 101.533 451.225 98.856 450.264 95.9249C449.304 92.964 448.418 90.0181 447.608 87.087C446.828 84.1261 446.197 81.4194 445.717 78.9669C445.237 76.4845 444.997 74.5405 444.997 73.1348C444.997 72.5366 445.162 72.0432 445.492 71.6543C446.873 69.9496 448.839 68.17 451.39 66.3157C451.84 66.0166 452.245 65.8671 452.605 65.8671C452.996 65.8671 453.401 66.0166 453.821 66.3157C455.202 67.3027 456.357 68.2298 457.288 69.0972C458.248 69.9645 459.059 70.8169 459.719 71.6543C460.049 72.0432 460.214 72.5965 460.214 73.3143V73.0899C460.214 74.9443 460.319 77.0827 460.529 79.5053C460.769 81.9278 461.1 84.4252 461.52 86.9973C461.94 89.5694 462.435 92.0219 463.006 94.3548C463.606 96.6876 464.266 98.6915 464.987 100.366H465.257C466.037 98.6915 466.862 96.5082 467.733 93.8164C468.603 91.1247 469.429 88.2834 470.209 85.2925C471.019 82.2718 471.74 79.4305 472.37 76.7687C473 74.1068 473.451 71.9983 473.721 70.4431C473.931 69.2766 474.396 68.499 475.116 68.1102C475.867 67.7214 476.902 67.527 478.223 67.527H483.445C484.946 67.527 486.012 67.7513 486.642 68.1999C487.302 68.6486 487.708 69.3963 487.858 70.4431C488.098 72.0581 488.533 74.2414 489.163 76.993C489.794 79.7146 490.499 82.6008 491.279 85.6514C492.09 88.7021 492.9 91.5583 493.71 94.2202C494.521 96.882 495.211 98.9307 495.781 100.366H496.097C496.997 98.3924 497.853 95.8502 498.663 92.7397C499.473 89.5993 500.134 86.2945 500.644 82.8251C501.154 79.3557 501.409 76.1256 501.409 73.1348V73.3143C501.409 72.5965 501.559 72.0432 501.859 71.6543C502.55 70.8169 503.36 69.9645 504.291 69.0972C505.221 68.2298 506.347 67.3027 507.667 66.3157C508.087 66.0166 508.478 65.8671 508.838 65.8671C509.258 65.8671 509.648 66.0166 510.008 66.3157C511.359 67.3027 512.5 68.2298 513.43 69.0972C514.361 69.9645 515.156 70.8169 515.816 71.6543C516.116 72.0432 516.266 72.5666 516.266 73.2245C516.236 74.69 515.951 76.649 515.411 79.1015C514.871 81.5241 514.15 84.1859 513.25 87.087C512.38 89.9881 511.404 92.8893 510.324 95.7904C509.273 98.6915 508.193 101.353 507.082 103.776C506.001 106.198 504.996 108.128 504.066 109.563C503.465 110.49 502.94 111.193 502.49 111.672C502.04 112.15 501.484 112.464 500.824 112.614C500.194 112.763 499.248 112.838 497.988 112.838H492.9C491.489 112.838 490.379 112.644 489.568 112.255C488.788 111.836 488.053 110.939 487.362 109.563C486.942 108.756 486.432 107.41 485.832 105.526C485.231 103.611 484.616 101.533 483.986 99.2896C483.355 97.0166 482.8 94.8931 482.32 92.9192C481.84 90.9452 481.525 89.4947 481.374 88.5675C481.224 87.6702 481.059 86.5786 480.879 85.2925C480.729 84.0065 480.624 82.9896 480.564 82.2419H480.339C480.309 82.9896 480.204 84.0065 480.024 85.2925C479.874 86.5487 479.709 87.6553 479.529 88.6124C479.349 89.4498 479.018 90.7508 478.538 92.5154C478.058 94.2501 477.473 96.1792 476.782 98.3027C476.122 100.396 475.417 102.445 474.666 104.449C473.946 106.453 473.256 108.157 472.595 109.563C471.935 110.939 471.17 111.836 470.299 112.255C469.459 112.644 468.108 112.838 466.247 112.838H461.025C459.554 112.838 458.548 112.614 458.008 112.165C457.498 111.717 456.823 110.849 455.982 109.563ZM444.997 73.0451V73.1348C444.997 73.1946 444.997 73.2544 444.997 73.3143V73.0451ZM516.266 73.1348V73.3143V73.2245C516.266 73.1946 516.266 73.1647 516.266 73.1348Z" fill="#FF5D5D"/>
<path d="M539.844 106.535C539.844 107.462 539.664 108.337 539.304 109.159C538.959 109.982 538.479 110.7 537.864 111.313C537.248 111.926 536.528 112.412 535.702 112.771C534.877 113.115 533.999 113.287 533.069 113.287H531.223C530.292 113.287 529.414 113.115 528.589 112.771C527.764 112.412 527.043 111.926 526.428 111.313C525.813 110.7 525.325 109.982 524.965 109.159C524.62 108.337 524.447 107.462 524.447 106.535V96.1717C524.447 95.2445 524.62 94.3697 524.965 93.5472C525.325 92.7248 525.813 92.007 526.428 91.3938C527.043 90.7807 527.764 90.3022 528.589 89.9582C529.414 89.5993 530.292 89.4199 531.223 89.4199H533.069C533.999 89.4199 534.877 89.5993 535.702 89.9582C536.528 90.3022 537.248 90.7807 537.864 91.3938C538.479 92.007 538.959 92.7248 539.304 93.5472C539.664 94.3697 539.844 95.2445 539.844 96.1717V106.535ZM537.076 96.0147C537.076 95.4614 536.971 94.9454 536.76 94.4669C536.55 93.9734 536.265 93.5472 535.905 93.1883C535.545 92.8294 535.117 92.5453 534.622 92.3359C534.142 92.1266 533.624 92.0219 533.069 92.0219H531.223C530.667 92.0219 530.142 92.1266 529.647 92.3359C529.167 92.5453 528.747 92.8294 528.386 93.1883C528.026 93.5472 527.741 93.9734 527.531 94.4669C527.321 94.9454 527.216 95.4614 527.216 96.0147V106.692C527.216 107.245 527.321 107.769 527.531 108.262C527.741 108.741 528.026 109.159 528.386 109.518C528.747 109.877 529.167 110.161 529.647 110.371C530.142 110.58 530.667 110.685 531.223 110.685H533.069C533.624 110.685 534.142 110.58 534.622 110.371C535.117 110.161 535.545 109.877 535.905 109.518C536.265 109.159 536.55 108.741 536.76 108.262C536.971 107.769 537.076 107.245 537.076 106.692V96.0147Z" fill="white"/>
<path d="M558.011 112.838V96.0147C558.011 95.4614 557.906 94.9454 557.696 94.4669C557.486 93.9734 557.2 93.5472 556.84 93.1883C556.48 92.8294 556.052 92.5453 555.557 92.3359C555.077 92.1266 554.559 92.0219 554.004 92.0219H552.158C551.603 92.0219 551.077 92.1266 550.582 92.3359C550.102 92.5453 549.682 92.8294 549.322 93.1883C548.961 93.5472 548.676 93.9734 548.466 94.4669C548.256 94.9454 548.151 95.4614 548.151 96.0147V112.838H545.382V89.8685H546.305L547.813 92.2014C548.444 91.349 549.232 90.676 550.177 90.1825C551.137 89.6741 552.18 89.4199 553.306 89.4199H554.004C554.934 89.4199 555.812 89.5993 556.638 89.9582C557.463 90.3022 558.183 90.7807 558.799 91.3938C559.414 92.007 559.894 92.7248 560.239 93.5472C560.6 94.3697 560.78 95.2445 560.78 96.1717V112.838H558.011Z" fill="white"/>
<path d="M567.24 112.838V80.6717H570.009V112.838H567.24Z" fill="white"/>
<path d="M577.19 84.3504V80.6717H580.409V84.3504H577.19ZM577.415 112.838V89.8685H580.184V112.838H577.415Z" fill="white"/>
<path d="M599.296 112.838V96.0147C599.296 95.4614 599.191 94.9454 598.981 94.4669C598.771 93.9734 598.486 93.5472 598.125 93.1883C597.765 92.8294 597.337 92.5453 596.842 92.3359C596.362 92.1266 595.844 92.0219 595.289 92.0219H593.443C592.888 92.0219 592.363 92.1266 591.867 92.3359C591.387 92.5453 590.967 92.8294 590.607 93.1883C590.247 93.5472 589.961 93.9734 589.751 94.4669C589.541 94.9454 589.436 95.4614 589.436 96.0147V112.838H586.667V89.8685H587.59L589.098 92.2014C589.729 91.349 590.517 90.676 591.462 90.1825C592.423 89.6741 593.466 89.4199 594.591 89.4199H595.289C596.219 89.4199 597.097 89.5993 597.923 89.9582C598.748 90.3022 599.469 90.7807 600.084 91.3938C600.699 92.007 601.179 92.7248 601.525 93.5472C601.885 94.3697 602.065 95.2445 602.065 96.1717V112.838H599.296Z" fill="white"/>
<path d="M623 106.535C623 107.462 622.82 108.337 622.46 109.159C622.115 109.982 621.634 110.7 621.019 111.313C620.404 111.926 619.683 112.412 618.858 112.771C618.033 113.115 617.155 113.287 616.224 113.287H614.378C613.448 113.287 612.57 113.115 611.745 112.771C610.919 112.412 610.199 111.926 609.583 111.313C608.968 110.7 608.48 109.982 608.12 109.159C607.775 108.337 607.602 107.462 607.602 106.535V96.1717C607.602 95.2445 607.775 94.3697 608.12 93.5472C608.48 92.7248 608.968 92.007 609.583 91.3938C610.199 90.7807 610.919 90.3022 611.745 89.9582C612.57 89.5993 613.448 89.4199 614.378 89.4199H616.224C617.155 89.4199 618.033 89.5993 618.858 89.9582C619.683 90.3022 620.404 90.7807 621.019 91.3938C621.634 92.007 622.115 92.7248 622.46 93.5472C622.82 94.3697 623 95.2445 623 96.1717V101.578H610.371V106.692C610.371 107.245 610.476 107.769 610.686 108.262C610.897 108.741 611.182 109.159 611.542 109.518C611.902 109.877 612.322 110.161 612.802 110.371C613.298 110.58 613.823 110.685 614.378 110.685H616.224C616.779 110.685 617.297 110.58 617.777 110.371C618.273 110.161 618.7 109.877 619.061 109.518C619.421 109.159 619.706 108.741 619.916 108.262C620.126 107.769 620.231 107.245 620.231 106.692V105.167L623 105.615V106.535ZM620.231 96.0147C620.231 95.4614 620.126 94.9454 619.916 94.4669C619.706 93.9734 619.421 93.5472 619.061 93.1883C618.7 92.8294 618.273 92.5453 617.777 92.3359C617.297 92.1266 616.779 92.0219 616.224 92.0219H614.378C613.823 92.0219 613.298 92.1266 612.802 92.3359C612.322 92.5453 611.902 92.8294 611.542 93.1883C611.182 93.5472 610.897 93.9734 610.686 94.4669C610.476 94.9454 610.371 95.4614 610.371 96.0147V99.4242H620.231V96.0147Z" fill="white"/>
<path d="M401.161 139.868C401.161 140.577 401.025 141.243 400.751 141.865C400.488 142.487 400.122 143.032 399.654 143.498C399.186 143.965 398.64 144.334 398.015 144.606C397.391 144.869 396.723 145 396.011 145H394.518C393.806 145 393.133 144.869 392.499 144.606C391.875 144.334 391.328 143.965 390.86 143.498C390.392 143.032 390.021 142.487 389.748 141.865C389.485 141.243 389.353 140.577 389.353 139.868V128.641C389.353 127.931 389.485 127.265 389.748 126.643C390.021 126.021 390.392 125.477 390.86 125.01C391.328 124.544 391.875 124.179 392.499 123.917C393.133 123.645 393.806 123.509 394.518 123.509H396.011C396.723 123.509 397.391 123.645 398.015 123.917C398.64 124.179 399.186 124.544 399.654 125.01C400.122 125.477 400.488 126.021 400.751 126.643C401.025 127.265 401.161 127.931 401.161 128.641V139.868ZM399.274 128.641C399.274 128.174 399.186 127.742 399.01 127.343C398.835 126.935 398.596 126.58 398.293 126.279C397.991 125.978 397.635 125.739 397.225 125.564C396.825 125.389 396.391 125.302 395.923 125.302H394.606C394.138 125.302 393.699 125.389 393.289 125.564C392.889 125.739 392.533 125.978 392.221 126.279C391.919 126.58 391.68 126.935 391.504 127.343C391.328 127.742 391.241 128.174 391.241 128.641V139.868C391.241 140.334 391.328 140.772 391.504 141.18C391.68 141.578 391.919 141.933 392.221 142.244C392.533 142.546 392.889 142.784 393.289 142.959C393.699 143.134 394.138 143.221 394.606 143.221H395.923C396.391 143.221 396.825 143.134 397.225 142.959C397.635 142.784 397.991 142.546 398.293 142.244C398.596 141.933 398.835 141.578 399.01 141.18C399.186 140.772 399.274 140.334 399.274 139.868V128.641Z" fill="white"/>
<path d="M413.277 144.708V133.773C413.277 133.414 413.208 133.078 413.072 132.767C412.935 132.446 412.75 132.169 412.516 131.936C412.282 131.703 412.004 131.518 411.682 131.382C411.37 131.246 411.033 131.178 410.672 131.178H409.472C409.111 131.178 408.77 131.246 408.448 131.382C408.136 131.518 407.863 131.703 407.629 131.936C407.394 132.169 407.209 132.446 407.073 132.767C406.936 133.078 406.868 133.414 406.868 133.773V144.708H405.068V129.778H405.668L406.648 131.295C407.058 130.74 407.57 130.303 408.185 129.982C408.809 129.652 409.487 129.487 410.218 129.487H410.672C411.277 129.487 411.848 129.603 412.384 129.836C412.921 130.06 413.389 130.371 413.789 130.77C414.189 131.168 414.501 131.635 414.725 132.169C414.959 132.704 415.076 133.273 415.076 133.875V144.708H413.277Z" fill="white"/>
<path d="M419.276 144.708V123.8H421.076V144.708H419.276Z" fill="white"/>
<path d="M425.743 126.191V123.8H427.836V126.191H425.743ZM425.889 144.708V129.778H427.689V144.708H425.889Z" fill="white"/>
<path d="M440.112 144.708V133.773C440.112 133.414 440.044 133.078 439.907 132.767C439.77 132.446 439.585 132.169 439.351 131.936C439.117 131.703 438.839 131.518 438.517 131.382C438.205 131.246 437.868 131.178 437.507 131.178H436.308C435.947 131.178 435.605 131.246 435.283 131.382C434.971 131.518 434.698 131.703 434.464 131.936C434.23 132.169 434.044 132.446 433.908 132.767C433.771 133.078 433.703 133.414 433.703 133.773V144.708H431.903V129.778H432.503L433.484 131.295C433.893 130.74 434.405 130.303 435.02 129.982C435.644 129.652 436.322 129.487 437.054 129.487H437.507C438.112 129.487 438.683 129.603 439.219 129.836C439.756 130.06 440.224 130.371 440.624 130.77C441.024 131.168 441.336 131.635 441.56 132.169C441.795 132.704 441.912 133.273 441.912 133.875V144.708H440.112Z" fill="white"/>
<path d="M455.52 140.611C455.52 141.214 455.402 141.783 455.168 142.317C454.944 142.852 454.632 143.318 454.232 143.717C453.832 144.115 453.364 144.431 452.827 144.665C452.291 144.888 451.72 145 451.115 145H449.915C449.311 145 448.74 144.888 448.203 144.665C447.667 144.431 447.199 144.115 446.799 143.717C446.399 143.318 446.082 142.852 445.848 142.317C445.623 141.783 445.511 141.214 445.511 140.611V133.875C445.511 133.273 445.623 132.704 445.848 132.169C446.082 131.635 446.399 131.168 446.799 130.77C447.199 130.371 447.667 130.06 448.203 129.836C448.74 129.603 449.311 129.487 449.915 129.487H451.115C451.72 129.487 452.291 129.603 452.827 129.836C453.364 130.06 453.832 130.371 454.232 130.77C454.632 131.168 454.944 131.635 455.168 132.169C455.402 132.704 455.52 133.273 455.52 133.875V137.389H447.311V140.713C447.311 141.073 447.379 141.413 447.516 141.734C447.652 142.045 447.838 142.317 448.072 142.551C448.306 142.784 448.579 142.968 448.891 143.105C449.213 143.241 449.554 143.309 449.915 143.309H451.115C451.476 143.309 451.813 143.241 452.125 143.105C452.447 142.968 452.725 142.784 452.959 142.551C453.193 142.317 453.378 142.045 453.515 141.734C453.651 141.413 453.72 141.073 453.72 140.713V139.722L455.52 140.014V140.611ZM453.72 133.773C453.72 133.414 453.651 133.078 453.515 132.767C453.378 132.446 453.193 132.169 452.959 131.936C452.725 131.703 452.447 131.518 452.125 131.382C451.813 131.246 451.476 131.178 451.115 131.178H449.915C449.554 131.178 449.213 131.246 448.891 131.382C448.579 131.518 448.306 131.703 448.072 131.936C447.838 132.169 447.652 132.446 447.516 132.767C447.379 133.078 447.311 133.414 447.311 133.773V135.989H453.72V133.773Z" fill="white"/>
<path d="M478.433 139.576C478.433 140.286 478.297 140.952 478.024 141.574C477.76 142.196 477.395 142.74 476.926 143.207C476.458 143.673 475.907 144.043 475.273 144.315C474.649 144.577 473.98 144.708 473.268 144.708H466.625V123.8H473.268C473.98 123.8 474.649 123.936 475.273 124.208C475.907 124.471 476.458 124.835 476.926 125.302C477.395 125.769 477.76 126.318 478.024 126.95C478.297 127.572 478.433 128.238 478.433 128.947V139.576ZM476.546 128.947C476.546 128.481 476.458 128.048 476.283 127.649C476.107 127.241 475.863 126.886 475.551 126.585C475.249 126.274 474.892 126.031 474.483 125.856C474.083 125.681 473.649 125.594 473.18 125.594H468.513V142.915H473.18C473.649 142.915 474.083 142.828 474.483 142.653C474.892 142.478 475.249 142.239 475.551 141.938C475.863 141.637 476.107 141.287 476.283 140.888C476.458 140.48 476.546 140.043 476.546 139.576V128.947Z" fill="white"/>
<path d="M482.925 144.708V123.8H484.813V144.708H482.925Z" fill="white"/>
<path d="M501.128 139.868C501.128 140.577 500.991 141.243 500.718 141.865C500.455 142.487 500.089 143.032 499.621 143.498C499.153 143.965 498.606 144.334 497.982 144.606C497.358 144.869 496.689 145 495.977 145H494.485C493.773 145 493.1 144.869 492.466 144.606C491.841 144.334 491.295 143.965 490.827 143.498C490.359 143.032 489.988 142.487 489.715 141.865C489.451 141.243 489.32 140.577 489.32 139.868V128.641C489.32 127.931 489.451 127.265 489.715 126.643C489.988 126.021 490.359 125.477 490.827 125.01C491.295 124.544 491.841 124.179 492.466 123.917C493.1 123.645 493.773 123.509 494.485 123.509H495.977C496.689 123.509 497.358 123.645 497.982 123.917C498.606 124.179 499.153 124.544 499.621 125.01C500.089 125.477 500.455 126.021 500.718 126.643C500.991 127.265 501.128 127.931 501.128 128.641V129.487L499.24 129.778V128.641C499.24 128.174 499.153 127.742 498.977 127.343C498.801 126.935 498.562 126.58 498.26 126.279C497.958 125.978 497.602 125.739 497.192 125.564C496.792 125.389 496.358 125.302 495.89 125.302H494.573C494.104 125.302 493.665 125.389 493.256 125.564C492.856 125.739 492.5 125.978 492.188 126.279C491.885 126.58 491.646 126.935 491.471 127.343C491.295 127.742 491.207 128.174 491.207 128.641V139.868C491.207 140.334 491.295 140.772 491.471 141.18C491.646 141.578 491.885 141.933 492.188 142.244C492.5 142.546 492.856 142.784 493.256 142.959C493.665 143.134 494.104 143.221 494.573 143.221H495.89C496.358 143.221 496.792 143.134 497.192 142.959C497.602 142.784 497.958 142.546 498.26 142.244C498.562 141.933 498.801 141.578 498.977 141.18C499.153 140.772 499.24 140.334 499.24 139.868V138.73L501.128 139.037V139.868Z" fill="white"/>
<path d="M516.843 139.868C516.843 140.577 516.706 141.243 516.433 141.865C516.17 142.487 515.804 143.032 515.336 143.498C514.867 143.965 514.321 144.334 513.697 144.606C513.073 144.869 512.404 145 511.692 145H510.2C509.488 145 508.815 144.869 508.181 144.606C507.556 144.334 507.01 143.965 506.542 143.498C506.074 143.032 505.703 142.487 505.43 141.865C505.166 141.243 505.035 140.577 505.035 139.868V128.641C505.035 127.931 505.166 127.265 505.43 126.643C505.703 126.021 506.074 125.477 506.542 125.01C507.01 124.544 507.556 124.179 508.181 123.917C508.815 123.645 509.488 123.509 510.2 123.509H511.692C512.404 123.509 513.073 123.645 513.697 123.917C514.321 124.179 514.867 124.544 515.336 125.01C515.804 125.477 516.17 126.021 516.433 126.643C516.706 127.265 516.843 127.931 516.843 128.641V139.868ZM514.955 128.641C514.955 128.174 514.867 127.742 514.692 127.343C514.516 126.935 514.277 126.58 513.975 126.279C513.672 125.978 513.316 125.739 512.907 125.564C512.507 125.389 512.073 125.302 511.604 125.302H510.288C509.819 125.302 509.38 125.389 508.971 125.564C508.571 125.739 508.215 125.978 507.903 126.279C507.6 126.58 507.361 126.935 507.186 127.343C507.01 127.742 506.922 128.174 506.922 128.641V139.868C506.922 140.334 507.01 140.772 507.186 141.18C507.361 141.578 507.6 141.933 507.903 142.244C508.215 142.546 508.571 142.784 508.971 142.959C509.38 143.134 509.819 143.221 510.288 143.221H511.604C512.073 143.221 512.507 143.134 512.907 142.959C513.316 142.784 513.672 142.546 513.975 142.244C514.277 141.933 514.516 141.578 514.692 141.18C514.867 140.772 514.955 140.334 514.955 139.868V128.641Z" fill="white"/>
<path d="M534.27 144.708V130.376L534.138 131.265L529.265 144.708H528.27L523.354 131.265L523.237 130.376V144.708H521.349V123.8H522.33L528.695 140.947L528.753 141.719L528.812 140.947L535.162 123.8H536.157V144.708H534.27Z" fill="white"/>
<path d="M552.355 140.116L552.413 140.888L552.472 140.116L557.125 123.8H559.071L552.896 144.708H551.901L545.756 123.8H547.717L552.355 140.116Z" fill="white"/>
<path d="M561.617 126.191V123.8H563.709V126.191H561.617ZM561.763 144.708V129.778H563.563V144.708H561.763Z" fill="white"/>
<path d="M577.786 140.611C577.786 141.214 577.669 141.783 577.434 142.317C577.21 142.852 576.898 143.318 576.498 143.717C576.098 144.115 575.63 144.431 575.093 144.665C574.557 144.888 573.986 145 573.381 145H572.181C571.577 145 571.006 144.888 570.469 144.665C569.933 144.431 569.465 144.115 569.065 143.717C568.665 143.318 568.348 142.852 568.114 142.317C567.889 141.783 567.777 141.214 567.777 140.611V133.875C567.777 133.273 567.889 132.704 568.114 132.169C568.348 131.635 568.665 131.168 569.065 130.77C569.465 130.371 569.933 130.06 570.469 129.836C571.006 129.603 571.577 129.487 572.181 129.487H573.381C573.986 129.487 574.557 129.603 575.093 129.836C575.63 130.06 576.098 130.371 576.498 130.77C576.898 131.168 577.21 131.635 577.434 132.169C577.669 132.704 577.786 133.273 577.786 133.875V137.389H569.577V140.713C569.577 141.073 569.645 141.413 569.782 141.734C569.918 142.045 570.104 142.317 570.338 142.551C570.572 142.784 570.845 142.968 571.157 143.105C571.479 143.241 571.821 143.309 572.181 143.309H573.381C573.742 143.309 574.079 143.241 574.391 143.105C574.713 142.968 574.991 142.784 575.225 142.551C575.459 142.317 575.644 142.045 575.781 141.734C575.918 141.413 575.986 141.073 575.986 140.713V139.722L577.786 140.014V140.611ZM575.986 133.773C575.986 133.414 575.918 133.078 575.781 132.767C575.644 132.446 575.459 132.169 575.225 131.936C574.991 131.703 574.713 131.518 574.391 131.382C574.079 131.246 573.742 131.178 573.381 131.178H572.181C571.821 131.178 571.479 131.246 571.157 131.382C570.845 131.518 570.572 131.703 570.338 131.936C570.104 132.169 569.918 132.446 569.782 132.767C569.645 133.078 569.577 133.414 569.577 133.773V135.989H575.986V133.773Z" fill="white"/>
<path d="M593.998 144.708H593.018L589.506 133.452L589.447 132.68L589.389 133.452L585.877 144.708H584.882L579.878 129.778H581.707L585.277 141.063L585.336 141.836L585.394 141.063L588.906 129.778H589.989L593.486 141.063L593.544 141.836L593.603 141.063L597.173 129.778H599.002L593.998 144.708Z" fill="white"/>
<path d="M611.118 140.611C611.118 141.214 611 141.783 610.766 142.317C610.542 142.852 610.23 143.318 609.83 143.717C609.43 144.115 608.962 144.431 608.425 144.665C607.889 144.888 607.318 145 606.713 145H605.513C604.909 145 604.338 144.888 603.802 144.665C603.265 144.431 602.797 144.115 602.397 143.717C601.997 143.318 601.68 142.852 601.446 142.317C601.221 141.783 601.109 141.214 601.109 140.611V133.875C601.109 133.273 601.221 132.704 601.446 132.169C601.68 131.635 601.997 131.168 602.397 130.77C602.797 130.371 603.265 130.06 603.802 129.836C604.338 129.603 604.909 129.487 605.513 129.487H606.713C607.318 129.487 607.889 129.603 608.425 129.836C608.962 130.06 609.43 130.371 609.83 130.77C610.23 131.168 610.542 131.635 610.766 132.169C611 132.704 611.118 133.273 611.118 133.875V137.389H602.909V140.713C602.909 141.073 602.977 141.413 603.114 141.734C603.25 142.045 603.436 142.317 603.67 142.551C603.904 142.784 604.177 142.968 604.489 143.105C604.811 143.241 605.153 143.309 605.513 143.309H606.713C607.074 143.309 607.411 143.241 607.723 143.105C608.045 142.968 608.323 142.784 608.557 142.551C608.791 142.317 608.976 142.045 609.113 141.734C609.25 141.413 609.318 141.073 609.318 140.713V139.722L611.118 140.014V140.611ZM609.318 133.773C609.318 133.414 609.25 133.078 609.113 132.767C608.976 132.446 608.791 132.169 608.557 131.936C608.323 131.703 608.045 131.518 607.723 131.382C607.411 131.246 607.074 131.178 606.713 131.178H605.513C605.153 131.178 604.811 131.246 604.489 131.382C604.177 131.518 603.904 131.703 603.67 131.936C603.436 132.169 603.25 132.446 603.114 132.767C602.977 133.078 602.909 133.414 602.909 133.773V135.989H609.318V133.773Z" fill="white"/>
<path d="M619.121 131.484C618.76 131.484 618.419 131.552 618.097 131.688C617.785 131.824 617.512 132.009 617.278 132.242C617.044 132.476 616.858 132.753 616.722 133.073C616.585 133.384 616.517 133.72 616.517 134.079V144.708H614.717V129.778H615.317L616.297 131.295C616.707 130.74 617.219 130.303 617.834 129.982C618.458 129.652 619.136 129.487 619.868 129.487H620.921V131.484H619.121Z" fill="white"/>
</svg>
